<?xml version="1.0" encoding="utf-8"?>
<!-- Generator: Adobe Illustrator 23.1.0, SVG Export Plug-In . SVG Version: 6.00 Build 0)  -->
<svg version="1.1"
	 id="svg3161" xmlns:cc="http://creativecommons.org/ns#" xmlns:dc="http://purl.org/dc/elements/1.1/" xmlns:rdf="http://www.w3.org/1999/02/22-rdf-syntax-ns#" xmlns:svg="http://www.w3.org/2000/svg"
	 xmlns="http://www.w3.org/2000/svg" xmlns:xlink="http://www.w3.org/1999/xlink" x="0px" y="0px" viewBox="0 0 48 48"
	 style="enable-background:new 0 0 48 48;" xml:space="preserve">
<style type="text/css">
	.st0{fill:#0066CC;}
	.st1{fill:#FFFFFF;}
</style>
<circle class="st0" cx="24" cy="24" r="24"/>
<g>
	<g>
		<g>
			<g>
				<path class="st1" d="M20.2,18.1L19,16.6L15.2,20c-0.8,0.7-0.8,1.9,0,2.7l3.8,3.4l1.3-1.4l-3.7-3.3L20.2,18.1z"/>
			</g>
		</g>
		<g>
			<g>
				<path class="st1" d="M32.9,20L29,16.6L27.7,18l3.7,3.3l-3.7,3.3L29,26l3.8-3.4C33.7,22,33.7,20.8,32.9,20z"/>
			</g>
		</g>
		<g>
			<g>
				<polygon class="st1" points="24,16.6 22.1,26.1 24,26.1 25.9,16.6 				"/>
			</g>
		</g>
	</g>
	<g>
		<g>
			<g>
				<path class="st1" d="M9.9,11.3v20.1h10.6V35H17v1.7h14V35h-3.5v-3.6h10.6l0,0V11.3H9.9z M25.8,35.1h-3.7v-3.6h3.7V35.1z
					 M36.5,29.8h-25V12.9h24.9L36.5,29.8L36.5,29.8z"/>
			</g>
		</g>
	</g>
</g>
</svg>
