<?xml version="1.0" encoding="utf-8"?>
<!-- Generator: Adobe Illustrator 23.1.0, SVG Export Plug-In . SVG Version: 6.00 Build 0)  -->
<svg version="1.1" id="Calque_1" xmlns="http://www.w3.org/2000/svg" xmlns:xlink="http://www.w3.org/1999/xlink" x="0px" y="0px"
	 viewBox="0 0 48 48" style="enable-background:new 0 0 48 48;" xml:space="preserve">
<style type="text/css">
	.st0{fill:#FF3333;}
	.st1{fill:none;}
	.st2{fill:none;stroke:#FFFFFF;stroke-miterlimit:10;}
	.st3{fill:#FFFFFF;}
</style>
<circle class="st0" cx="24" cy="24" r="24"/>
<path class="st1" d="M11,11h26v26H11V11z"/>
<g>
	<g>
		<g>
			<path class="st2" d="M37.2,19.1C37,19,36.9,19,36.8,19c-0.2,0-0.3,0-0.4,0.1l-12.4,8.2l-12.4-8.2C11.4,19,11.2,19,11.1,19
				c-0.1,0-0.3,0-0.4,0.1c-0.3,0.1-0.4,0.4-0.4,0.7v17c0,0.4,0.4,0.8,0.8,0.8h25.7c0.4,0,0.8-0.4,0.8-0.8v-17
				C37.5,19.5,37.4,19.2,37.2,19.1z"/>
		</g>
	</g>
	<g>
		<g>
			<path class="st3" d="M28.2,17.9L28.2,17.9l-0.1-3.3c0-2.3-1.9-4.2-4.2-4.2s-4.2,1.9-4.2,4.2v3.3h-0.1c-0.4,0-0.8,0.4-0.8,0.8
				s0.4,0.8,0.8,0.8h0.9h2.6c0,0,0,0,0,0.1c0,0.2,0.1,0.4,0.2,0.6c0.1,0.1,0.4,0.2,0.6,0.2s0.4-0.1,0.6-0.2c0.1-0.1,0.2-0.4,0.2-0.6
				c0,0,0,0,0-0.1h2.6h0.9c0.4,0,0.8-0.4,0.8-0.8S28.6,17.9,28.2,17.9z"/>
		</g>
	</g>
	<g>
		<g>
			<path class="st2" d="M29.7,14.1c0,0.2,0,0.3,0,0.5v2.3c0.5,0.4,0.9,1.1,0.9,1.8c0,1.3-1.1,2.4-2.4,2.4h-0.9h-1.6
				c0,0.1-0.1,0.1-0.1,0.2c-0.4,0.4-1.1,0.7-1.7,0.7s-1.2-0.3-1.7-0.7c0,0-0.1-0.1-0.1-0.2h-1.6h-0.9c-1.3,0-2.4-1.1-2.4-2.4
				c0-0.7,0.3-1.4,0.9-1.8v-2.3c0-0.2,0-0.3,0-0.5l-5.7,3.8l11.5,7.5l11.5-7.6L29.7,14.1z"/>
		</g>
	</g>
</g>
</svg>
