<?xml version="1.0" encoding="utf-8"?>
<!-- Generator: Adobe Illustrator 23.1.0, SVG Export Plug-In . SVG Version: 6.00 Build 0)  -->
<svg version="1.1"
	 id="svg26" xmlns:cc="http://creativecommons.org/ns#" xmlns:dc="http://purl.org/dc/elements/1.1/" xmlns:inkscape="http://www.inkscape.org/namespaces/inkscape" xmlns:rdf="http://www.w3.org/1999/02/22-rdf-syntax-ns#" xmlns:sodipodi="http://sodipodi.sourceforge.net/DTD/sodipodi-0.dtd" xmlns:svg="http://www.w3.org/2000/svg"
	 xmlns="http://www.w3.org/2000/svg" xmlns:xlink="http://www.w3.org/1999/xlink" x="0px" y="0px" viewBox="0 0 48 48"
	 style="enable-background:new 0 0 48 48;" xml:space="preserve">
<style type="text/css">
	.st0{fill:#FF3333;}
	.st1{fill:none;stroke:#FFFFFF;stroke-miterlimit:10;}
	.st2{fill:#FFFFFF;}
</style>
<circle class="st0" cx="24" cy="24" r="24"/>
<sodipodi:namedview  bordercolor="#666666" borderopacity="1" gridtolerance="10" guidetolerance="10" id="namedview28" inkscape:current-layer="svg26" inkscape:cx="11.342929" inkscape:cy="12" inkscape:pageopacity="0" inkscape:pageshadow="2" inkscape:window-height="1138" inkscape:window-maximized="1" inkscape:window-width="1920" inkscape:window-x="1672" inkscape:window-y="-8" inkscape:zoom="31.96" objecttolerance="10" pagecolor="#ffffff" showgrid="false">
	</sodipodi:namedview>
<g>
	<g id="Ebene_1" transform="matrix(1.5785429,0,0,1.3360463,-2.4023443,-0.53905028)">
		<g id="g23">
			<path id="path19" inkscape:connector-curvature="0" class="st1" d="M17.4,24.1c0.5,0.2,1.1,0.4,1.7,0.4c0.3,0,0.5,0,0.8-0.1
				c0.4,0.3,0.8,0.5,1.3,0.7c0.1,0,0.2,0.1,0.4,0.1l0,0h0.1c0,0,0-0.1,0.1-0.1l0,0l0,0l0,0l0,0l0,0l0,0l0,0l0,0L21.7,25
				c-0.1-0.1-0.1-0.1-0.1-0.2c0,0-0.1-0.1-0.1-0.2s-0.1-0.1-0.1-0.2s-0.1-0.1-0.1-0.2c0.4-0.3,0.7-0.6,0.9-0.9
				c0.2-0.4,0.3-0.8,0.3-1.2c0-0.5-0.1-0.9-0.4-1.3s-0.7-0.7-1.2-1c-0.5-0.2-1.1-0.4-1.7-0.4s-1.2,0.1-1.7,0.4
				c-0.5,0.2-0.9,0.6-1.2,1s-0.4,0.9-0.4,1.3c0,0.5,0.1,0.9,0.4,1.3C16.5,23.5,16.9,23.8,17.4,24.1z"/>
			<path id="path21" inkscape:connector-curvature="0" class="st1" d="M13.7,25c0.2,0.4,0.5,0.7,0.9,0.9c0,0.1-0.1,0.2-0.1,0.2
				c0,0.1-0.1,0.1-0.1,0.2s-0.1,0.1-0.1,0.2c0,0-0.1,0.1-0.1,0.2c-0.1,0.1-0.1,0.1-0.1,0.1l0,0l0,0l0,0l0,0l0,0l0,0l0,0l0,0
				c0,0,0,0.1,0.1,0.1s0.1,0,0.1,0c0.2,0,0.3-0.1,0.4-0.1c0.5-0.1,0.9-0.4,1.3-0.7c0.3,0.1,0.6,0.1,0.8,0.1c0.8,0,1.6-0.2,2.2-0.7
				c-0.2,0-0.3,0-0.4,0c-0.5,0-1-0.1-1.5-0.2c-0.5-0.2-0.9-0.4-1.2-0.7c-0.4-0.3-0.7-0.7-0.9-1.1s-0.3-0.9-0.3-1.3
				c0-0.3,0-0.5,0.1-0.8c-0.4,0.2-0.7,0.6-1,0.9c-0.2,0.4-0.4,0.8-0.4,1.2C13.4,24.3,13.5,24.7,13.7,25z"/>
		</g>
	</g>
	<g>
		<g>
			<g>
				<path class="st2" d="M37.8,17.6L37.8,17.6c0-0.1-0.1-0.2-0.1-0.2l-7.2-7.2c0,0-0.1-0.1-0.2-0.1h-0.1c0,0-0.1,0-0.2,0H15.3
					c-0.6,0-1.1,0.5-1.1,1.1V17h-2.9c-0.6,0-1.1,0.5-1.1,1.1v6.1c0,0.6,0.5,1.1,1.1,1.1h2.9v11.6c0,0.6,0.5,1.1,1.1,1.1h21.3
					c0.6,0,1.1-0.5,1.1-1.1l0,0V17.8l0,0C37.8,17.7,37.8,17.7,37.8,17.6z M30.6,12l5.3,5.2h-5.3C30.6,17.2,30.6,12,30.6,12z
					 M11.4,24.1V18h12.1v6.1H11.4z M36.6,36.8H15.4V25.3h8c0.6,0,1.1-0.5,1.1-1.1V18c0-0.6-0.5-1.1-1.1-1.1h-8v-5.7h14v6.1
					c0,0.6,0.5,1.1,1.1,1.1h6.1V36.8z"/>
			</g>
		</g>
		<g>
			<g>
				<path class="st2" d="M15.5,20.1c0-0.6-0.6-1-1.2-1h-0.9c-0.2,0-0.3,0.1-0.3,0.3v3c0,0.2,0.1,0.3,0.3,0.3s0.3-0.1,0.3-0.3v-1.1
					h0.6c0.1,0,0.1,0,0.2,0C15.1,21.2,15.5,20.7,15.5,20.1z M14.3,20.7h-0.6v-1h0.6c0.3,0,0.5,0.2,0.5,0.5
					C14.8,20.4,14.6,20.7,14.3,20.7z"/>
			</g>
		</g>
		<g>
			<g>
				<path class="st2" d="M16.9,19.1h-0.6c-0.2,0-0.3,0.1-0.3,0.3v3l0,0c0,0.2,0.1,0.3,0.3,0.3h0.6c1,0,1.8-0.8,1.8-1.8
					C18.7,19.9,17.9,19.1,16.9,19.1z M17,22h-0.3v-2.4H17c0.6,0,1.1,0.5,1.1,1.1C18.1,21.4,17.6,22,17,22z"/>
			</g>
		</g>
		<g>
			<g>
				<path class="st2" d="M21.6,19.7c0.2,0,0.3-0.1,0.3-0.3s-0.1-0.3-0.3-0.3H20c-0.2,0-0.3,0.1-0.3,0.3v3l0,0c0,0.2,0.1,0.3,0.3,0.3
					c0.2,0,0.3-0.1,0.3-0.3v-1.2h1.1c0.2,0,0.3-0.1,0.3-0.3s-0.1-0.3-0.3-0.3h-1.1v-0.9C20.3,19.7,21.6,19.7,21.6,19.7z"/>
			</g>
		</g>
	</g>
</g>
</svg>
