<?xml version="1.0" encoding="utf-8"?>
<!-- Generator: Adobe Illustrator 23.1.0, SVG Export Plug-In . SVG Version: 6.00 Build 0)  -->
<svg version="1.1" id="Calque_1" xmlns="http://www.w3.org/2000/svg" xmlns:xlink="http://www.w3.org/1999/xlink" x="0px" y="0px"
	 viewBox="0 0 48 48" style="enable-background:new 0 0 48 48;" xml:space="preserve">
<style type="text/css">
	.st0{fill:#0882C8;}
	.st1{fill:#FFFFFF;}
</style>
<title>h5p</title>
<path class="st0" d="M15,12h18c1.7,0,3,1.3,3,3v18c0,1.7-1.3,3-3,3H15c-1.7,0-3-1.3-3-3V15C12,13.3,13.3,12,15,12z"/>
<circle class="st0" cx="24" cy="24" r="24"/>
<path class="st1" d="M42.7,15.4c-1.2-1.2-2.9-1.8-4.5-1.7h-6.7V18h-8l-0.7,3.2c0.6-0.3,1.2-0.6,1.8-0.8c0.5-0.1,1.1-0.2,1.6-0.1
	c1.6-0.1,3.2,0.6,4.3,1.9c1.1,1.2,1.7,3,1.7,4.8c0,1.4-0.3,2.7-0.8,4c-0.5,1.2-1.4,2.2-2.4,2.9c-0.4,0.2-0.8,0.4-1.2,0.6h6.8v-7.6h3
	c1.8,0.2,3.5-0.5,4.9-1.8c1.1-1.3,1.7-3.1,1.6-4.9C44.2,18.3,43.7,16.6,42.7,15.4z M38.2,21.8c-0.7,0.5-1.5,0.7-2.2,0.6h-1.4v-4.5
	h1.6c0.7-0.1,1.5,0.1,2.1,0.7c0.4,0.4,0.6,1,0.6,1.6C38.8,20.9,38.6,21.4,38.2,21.8z M26.9,26.9c0,1.6-1.1,2.9-2.4,2.9
	c-0.9,0-1.8-0.6-2.2-1.6L17.5,29c0.2,0.8,0.5,1.6,1,2.4c0.4,0.7,0.9,1.3,1.4,1.8c0.6,0.5,1.3,0.9,2.1,1.1h-6.7v-7.5H9.2v7.5H3.9
	V13.7h5.4v8.8h6.1v-8.8h4.4l-2.2,11.2l4.8,0.8c0.6-1.4,2-2,3.3-1.3C26.4,24.9,27,25.9,26.9,26.9L26.9,26.9z"/>
</svg>
