<?xml version="1.0" encoding="utf-8"?>
<!-- Generator: Adobe Illustrator 23.1.0, SVG Export Plug-In . SVG Version: 6.00 Build 0)  -->
<svg version="1.1" id="Layer_1" xmlns="http://www.w3.org/2000/svg" xmlns:xlink="http://www.w3.org/1999/xlink" x="0px" y="0px"
	 viewBox="0 0 48 48" style="enable-background:new 0 0 48 48;" xml:space="preserve">
<style type="text/css">
	.st0{fill:#1D1D1D;}
	.st1{fill:#FFFFFF;}
</style>
<g>
	<circle class="st0" cx="24" cy="24" r="24"/>
	<g>
		<path class="st1" d="M42.2,16.7c-1-0.9-2.4-1.4-4.3-1.4h-5.2h-1.4v3.5h-7.8l-0.6,2.7c0.5-0.2,1.3-0.5,1.8-0.6s1-0.1,1.6-0.1
			c1.7,0,3.1,0.5,4.2,1.6c1.1,1,1.6,2.4,1.6,4c0,1.1-0.3,2.2-0.8,3.2c-0.6,1-1.3,1.8-2.4,2.4c-0.4,0.2-0.8,0.2-1.2,0.5h5h1.4v-6.3
			h3.2c2.2,0,3.8-0.5,4.8-1.5c1.1-1,1.6-2.3,1.6-4.1C43.7,18.9,43.2,17.6,42.2,16.7z M37.9,22.1c-0.4,0.4-1.1,0.5-2.2,0.5h-1.6v-3.8
			h1.8c1,0,1.7,0.2,2,0.6c0.4,0.4,0.5,0.8,0.5,1.4C38.5,21.3,38.3,21.7,37.9,22.1z"/>
		<path class="st1" d="M24.6,24c-0.9,0-1.7,0.5-2.1,1.3l-4.7-0.6l2.1-9.3h-2.8h-1.6v7.3H9.9v-7.3H4.5v17.2h5.4v-6.3h5.6v6.3h1.6h5
			c-0.8-0.3-1.5-0.6-2-1c-0.6-0.4-1-0.9-1.4-1.5c-0.4-0.5-0.6-1.2-0.9-2l4.7-0.7c0.4,0.8,1.2,1.3,2.1,1.3c1.3,0,2.4-1.1,2.4-2.4
			C26.9,25,25.9,24,24.6,24z"/>
	</g>
</g>
</svg>
