<?xml version="1.0" encoding="utf-8"?>
<!-- Generator: Adobe Illustrator 23.1.0, SVG Export Plug-In . SVG Version: 6.00 Build 0)  -->
<svg version="1.1" id="Calque_1" xmlns="http://www.w3.org/2000/svg" xmlns:xlink="http://www.w3.org/1999/xlink" x="0px" y="0px"
	 viewBox="0 0 48 48" style="enable-background:new 0 0 48 48;" xml:space="preserve">
<style type="text/css">
	.st0{fill:#333366;}
	.st1{fill:none;stroke:#FFFFFF;stroke-miterlimit:10;}
</style>
<circle class="st0" cx="24" cy="24" r="24"/>
<g>
	<path class="st1" d="M19,24c3.7,0,6.7-3,6.7-6.7s-3-6.7-6.7-6.7s-6.7,3-6.7,6.7S15.3,24,19,24z M23.7,25.7h-0.9
		c-1.2,0.5-2.4,0.8-3.8,0.8s-2.6-0.3-3.8-0.8h-0.9c-3.9,0-7,3.1-7,7v2.2c0,1.4,1.1,2.5,2.5,2.5h18.4c1.4,0,2.5-1.1,2.5-2.5v-2.2
		C30.7,28.8,27.5,25.7,23.7,25.7z M40.5,19L39,17.5c-0.2-0.2-0.6-0.2-0.9,0l-5.5,5.4l-2.4-2.4c-0.2-0.2-0.6-0.2-0.9,0L28,22
		c-0.2,0.2-0.2,0.6,0,0.9l4.3,4.3c0.2,0.2,0.6,0.2,0.9,0l7.4-7.3C40.8,19.6,40.8,19.2,40.5,19z"/>
</g>
</svg>
