<?xml version="1.0" encoding="utf-8"?>
<!-- Generator: Adobe Illustrator 23.1.0, SVG Export Plug-In . SVG Version: 6.00 Build 0)  -->
<svg version="1.1" id="Layer_1" xmlns="http://www.w3.org/2000/svg" xmlns:xlink="http://www.w3.org/1999/xlink" x="0px" y="0px"
	 viewBox="0 0 48 48" style="enable-background:new 0 0 48 48;" xml:space="preserve">
<style type="text/css">
	.st0{fill:#333366;}
	.st1{fill:#FFFFFF;}
	.st2{fill:none;stroke:#FFFFFF;stroke-miterlimit:10;}
</style>
<title>48px_sourcefile_20170718_multi</title>
<circle class="st0" cx="24" cy="24" r="24"/>
<g>
	<g>
		<g>
			<path class="st1" d="M33.6,17.8h-6.5l3.4-1.5c0.1-0.1,0.2-0.1,0.3-0.3c0-0.1,0-0.3,0-0.4l-2.8-6.4C27.8,9,27.5,8.9,27.3,9
				l-9.7,4.2c-0.2,0.1-0.4,0.4-0.3,0.6l1.7,3.9h-4.6c-0.3,0-0.5,0.2-0.5,0.5v2.8c0,0.3,0.2,0.5,0.5,0.5h0.9V38h-0.7
				c-0.3,0-0.5,0.2-0.5,0.5s0.2,0.5,0.5,0.5h1.2h16.4h1.2c0.3,0,0.5-0.2,0.5-0.5S33.7,38,33.4,38h-0.7V21.6h0.9
				c0.3,0,0.5-0.2,0.5-0.5v-2.8C34.1,18,33.9,17.8,33.6,17.8z M18.4,14l8.8-3.8l2.4,5.5l-5,2.2h-4.6L18.4,14z M31.7,38H16.3V21.6
				h15.5V38z M33.1,20.6h-0.9H15.8h-0.9v-1.8h18.3V20.6z"/>
		</g>
	</g>
	<g>
		<g>
			<polygon class="st2" points="27.9,28.9 25.2,28.5 24,26.1 22.8,28.5 20.1,28.9 22,30.8 21.6,33.6 24,32.3 26.4,33.6 26,30.8 			
				"/>
		</g>
	</g>
</g>
</svg>
