<?xml version="1.0" encoding="utf-8"?>
<!-- Generator: Adobe Illustrator 23.1.0, SVG Export Plug-In . SVG Version: 6.00 Build 0)  -->
<svg version="1.1" id="Layer_1" xmlns="http://www.w3.org/2000/svg" xmlns:xlink="http://www.w3.org/1999/xlink" x="0px" y="0px"
	 viewBox="0 0 48 48" style="enable-background:new 0 0 48 48;" xml:space="preserve">
<style type="text/css">
	.st0{fill:#0099CC;}
	.st1{fill:#FFFFFF;}
</style>
<title>48px_sourcefile_20170718_multi</title>
<circle class="st0" cx="24" cy="24.1" r="24"/>
<g>
	<g>
		<g>
			<path class="st1" d="M32.6,26.4h-1.1c-0.2,0-0.3,0.1-0.4,0.2c-0.1,0.1-0.2,0.3-0.2,0.4v5.9c0,0.8-0.3,1.5-0.8,2.1
				c-0.6,0.6-1.2,0.9-2,0.9H13.1c-0.8,0-1.5-0.3-2-0.9c-0.6-0.6-0.8-1.3-0.8-2.1V17.5c0-0.8,0.3-1.5,0.8-2.1c0.6-0.6,1.2-0.9,2-0.9
				h12.6c0.2,0,0.3-0.1,0.4-0.2c0.1-0.1,0.2-0.3,0.2-0.4v-1.2c0-0.2-0.1-0.3-0.2-0.4c-0.1-0.1-0.2-0.2-0.4-0.2H13.1
				c-1.4,0-2.6,0.5-3.6,1.6c-1,1-1.5,2.3-1.5,3.8v15.4c0,1.5,0.5,2.7,1.5,3.8c1,1,2.2,1.6,3.6,1.6H28c1.4,0,2.6-0.5,3.6-1.6
				c1-1,1.5-2.3,1.5-3.8V27c0-0.2-0.1-0.3-0.2-0.4C32.9,26.4,32.7,26.4,32.6,26.4z"/>
			<path class="st1" d="M39.7,10.1c-0.2-0.2-0.5-0.4-0.8-0.4h-9.1c-0.3,0-0.6,0.1-0.8,0.4c-0.2,0.2-0.3,0.5-0.3,0.8
				c0,0.3,0.1,0.6,0.3,0.8l3.1,3.3L20.4,27.1c-0.1,0.1-0.2,0.3-0.2,0.4c0,0.2,0.1,0.3,0.2,0.4l2,2.1c0.1,0.1,0.3,0.2,0.4,0.2
				c0.2,0,0.3-0.1,0.4-0.2L34.9,18l3.1,3.3c0.2,0.2,0.5,0.4,0.8,0.4s0.6-0.1,0.8-0.4c0.2-0.2,0.3-0.5,0.3-0.8V11
				C40,10.6,39.9,10.4,39.7,10.1z"/>
		</g>
	</g>
	<g>
	</g>
	<g>
	</g>
	<g>
	</g>
	<g>
	</g>
	<g>
	</g>
	<g>
	</g>
	<g>
	</g>
	<g>
	</g>
	<g>
	</g>
	<g>
	</g>
	<g>
	</g>
	<g>
	</g>
	<g>
	</g>
	<g>
	</g>
	<g>
	</g>
</g>
</svg>
