<?xml version="1.0" encoding="utf-8"?>
<!-- Generator: Adobe Illustrator 23.1.0, SVG Export Plug-In . SVG Version: 6.00 Build 0)  -->
<svg version="1.1" id="Layer_1" xmlns="http://www.w3.org/2000/svg" xmlns:xlink="http://www.w3.org/1999/xlink" x="0px" y="0px"
	 viewBox="0 0 48 48" style="enable-background:new 0 0 48 48;" xml:space="preserve">
<style type="text/css">
	.st0{fill:#0066CC;}
	.st1{fill:#FFFFFF;}
</style>
<title>48px_sourcefile_20170718_multi</title>
<circle class="st0" cx="24" cy="24" r="24"/>
<g>
	<g>
		<path class="st1" d="M33.9,9H15.3c-1.2,0-2.1,0.9-2.1,2.1v20.2c0,1.2,0.9,2.1,2.1,2.1h18.5c0.5,0,0.9-0.4,0.9-0.9V9.9
			C34.8,9.4,34.4,9,33.9,9z M15,31.3V11.1c0-0.2,0.2-0.3,0.3-0.3h2.4v20.8h-2.4C15.2,31.6,15,31.5,15,31.3z M32.9,31.6H19.6V10.8H33
			L32.9,31.6L32.9,31.6z"/>
	</g>
	<path class="st1" d="M20,38.9c0.3,0.1,0.6,0.1,0.9,0l1.9-0.9l1.9,0.9C25,39,25.1,39,25.3,39c0.2,0,0.3,0,0.5-0.1
		c0.3-0.1,0.5-0.4,0.5-0.6v-6.7h-1.8V37l-1-0.5c-0.3-0.1-0.6-0.1-0.9,0l-1,0.5v-5.4h-1.8v6.7C19.6,38.5,19.8,38.8,20,38.9z"/>
</g>
</svg>
