<?xml version="1.0" encoding="utf-8"?>
<!-- Generator: Adobe Illustrator 23.1.0, SVG Export Plug-In . SVG Version: 6.00 Build 0)  -->
<svg version="1.1" id="Layer_1" xmlns="http://www.w3.org/2000/svg" xmlns:xlink="http://www.w3.org/1999/xlink" x="0px" y="0px"
	 viewBox="0 0 48 48" style="enable-background:new 0 0 48 48;" xml:space="preserve">
<style type="text/css">
	.st0{fill:#990099;}
	.st1{fill:#FFFFFF;}
</style>
<title>48px_sourcefile_20170718_multi</title>
<circle class="st0" cx="24" cy="24" r="24"/>
<g>
	<g>
		<g>
			<path class="st1" d="M34.7,30.3c0.9-0.7,1.4-1.8,1.4-3.1c0-2.2-1.8-4-4-4s-4,1.8-4,4c0,1.2,0.6,2.3,1.4,3.1c-1.8,1-3,2.9-3,5.1
				V37c0,0.4,0.4,0.8,0.8,0.8H37c0.4,0,0.8-0.4,0.8-0.8v-1.6C37.8,33.2,36.5,31.2,34.7,30.3z M32.1,24.8c1.3,0,2.4,1.1,2.4,2.4
				s-1.1,2.4-2.4,2.4c-1.3,0-2.4-1.1-2.4-2.4S30.8,24.8,32.1,24.8z M36.2,36.2h-8.1v-0.8c0-2.3,1.8-4.1,4-4.1s4,1.8,4,4.1v0.8H36.2z
				"/>
		</g>
	</g>
	<g>
		<g>
			<path class="st1" d="M18.5,17.3c0.9-0.7,1.4-1.8,1.4-3.1c0-2.2-1.8-4-4-4s-4,1.8-4,4c0,1.2,0.6,2.3,1.4,3.1c-1.8,1-3,2.9-3,5.1
				V24c0,0.4,0.4,0.8,0.8,0.8h9.7c0.4,0,0.8-0.4,0.8-0.8v-1.6C21.5,20.2,20.3,18.3,18.5,17.3z M15.9,11.8c1.3,0,2.4,1.1,2.4,2.4
				s-1.1,2.4-2.4,2.4s-2.4-1.1-2.4-2.4S14.5,11.8,15.9,11.8z M19.9,23.2h-8.1v-0.8c0-2.3,1.8-4.1,4-4.1s4,1.8,4,4.1v0.8H19.9z"/>
		</g>
	</g>
	<g>
		<g>
			<path class="st1" d="M36.1,17.1c-0.1-0.3-0.4-0.5-0.7-0.5h-0.9c-0.4-3.6-3.5-6.5-7.2-6.5h-3.2c-0.4,0-0.8,0.4-0.8,0.8
				s0.4,0.8,0.8,0.8c2.8,0,5.2,2.1,5.6,4.8H29c-0.3,0-0.6,0.2-0.7,0.5s-0.1,0.6,0.1,0.9l3.2,4.1c0.2,0.2,0.4,0.3,0.6,0.3
				c0.2,0,0.5-0.1,0.6-0.3l3.2-4C36.2,17.8,36.2,17.4,36.1,17.1z M32.1,20.3l-1.6-2c0.4,0,0.8-0.4,0.8-0.8c0-2.1-0.9-4.1-2.4-5.4
				c2.3,0.7,4,2.9,4,5.4c0,0.4,0.3,0.8,0.8,0.8L32.1,20.3z"/>
		</g>
	</g>
	<g>
		<g>
			<path class="st1" d="M24.1,36.2c-2.8,0-5.3-2.2-5.7-4.9h0.7c0.3,0,0.6-0.2,0.7-0.5s0.1-0.6-0.1-0.9l-3.2-4
				c-0.2-0.2-0.4-0.3-0.6-0.3c-0.2,0-0.5,0.1-0.6,0.3l-3.2,4c-0.2,0.2-0.2,0.6-0.1,0.9c0.1,0.3,0.4,0.5,0.7,0.5h0.9
				c0.4,3.7,3.5,6.5,7.2,6.5h3.3c0.4,0,0.8-0.4,0.8-0.8S24.5,36.2,24.1,36.2z M15.1,30.5c0-0.4-0.3-0.8-0.7-0.8l1.6-1.9l1.6,1.9
				c-0.4,0-0.7,0.4-0.7,0.8c0,1.9,0.8,3.8,2.2,5.2c0.1,0.1,0.2,0.2,0.4,0.3C16.8,35.3,15.1,33.1,15.1,30.5z"/>
		</g>
	</g>
</g>
</svg>
