<?xml version="1.0" encoding="utf-8"?>
<!-- Generator: Adobe Illustrator 23.1.0, SVG Export Plug-In . SVG Version: 6.00 Build 0)  -->
<svg version="1.1" id="Calque_1" xmlns="http://www.w3.org/2000/svg" xmlns:xlink="http://www.w3.org/1999/xlink" x="0px" y="0px"
	 viewBox="0 0 48 48" style="enable-background:new 0 0 48 48;" xml:space="preserve">
<style type="text/css">
	.st0{fill:#C9961A;}
	.st1{fill:none;stroke:#FFFFFF;stroke-miterlimit:10;}
</style>
<circle class="st0" cx="24" cy="24" r="24"/>
<title>Asset 26</title>
<g id="Layer_2">
	<g>
		<path class="st1" d="M14.1,37.2l3.9-0.6l1.9,3.4l3.9-8.4c-2.3,0-4.5-0.7-6.3-1.9L14.1,37.2z"/>
		<path class="st1" d="M24.2,31.6l3.9,8.4l1.9-3.4l3.9,0.6l-3.4-7.5C28.7,30.9,26.5,31.6,24.2,31.6z"/>
		<path class="st1" d="M30.5,29.7c3.2-2.1,5.4-5.7,5.4-9.9C35.8,13.3,30.5,8,24,8s-11.8,5.3-11.8,11.8c0,4.1,2.1,7.8,5.4,9.9
			c0,0,2.9,2,6.5,2S30.5,29.7,30.5,29.7z"/>
		<circle class="st1" cx="24" cy="19.8" r="9.9"/>
	</g>
</g>
</svg>
