<?xml version="1.0" encoding="utf-8"?>
<!-- Generator: Adobe Illustrator 23.1.0, SVG Export Plug-In . SVG Version: 6.00 Build 0)  -->
<svg version="1.1" id="Layer_1" xmlns="http://www.w3.org/2000/svg" xmlns:xlink="http://www.w3.org/1999/xlink" x="0px" y="0px"
	 viewBox="0 0 48 48" style="enable-background:new 0 0 48 48;" xml:space="preserve">
<style type="text/css">
	.st0{fill:#99CC00;}
	.st1{fill:#FFFFFF;}
</style>
<title>48px_sourcefile_20170718_multi</title>
<circle class="st0" cx="24" cy="24" r="24"/>
<g>
	<g>
		<path class="st1" d="M28.5,9H12.3v30h23.5V16.3L28.5,9z M28.8,10.7L34,16h-5.3V10.7z M13.3,38V10h14.5v7h7v21H13.3z"/>
		<path class="st1" d="M30.3,19.5h-8c-0.3,0-0.5,0.2-0.5,0.5s0.2,0.5,0.5,0.5h8c0.3,0,0.5-0.2,0.5-0.5S30.5,19.5,30.3,19.5z"/>
		<path class="st1" d="M20.4,18.1l-2.2,1.7l-0.7-0.7c-0.2-0.2-0.5-0.2-0.7,0s-0.2,0.5,0,0.7l1,1C18,21,18.1,21,18.3,21
			c0.1,0,0.2,0,0.3-0.1l2.5-2c0.2-0.2,0.3-0.5,0.1-0.7C21,18,20.7,17.9,20.4,18.1z"/>
		<path class="st1" d="M30.3,25h-8c-0.3,0-0.5,0.2-0.5,0.5S22,26,22.3,26h8c0.3,0,0.5-0.2,0.5-0.5S30.5,25,30.3,25z"/>
		<path class="st1" d="M20.4,23.6l-2.2,1.7l-0.7-0.7c-0.2-0.2-0.5-0.2-0.7,0s-0.2,0.5,0,0.7l1,1c0.1,0.1,0.2,0.1,0.4,0.1
			c0.1,0,0.2,0,0.3-0.1l2.5-2c0.2-0.2,0.3-0.5,0.1-0.7C21,23.5,20.7,23.4,20.4,23.6z"/>
		<path class="st1" d="M30.3,30.5h-8c-0.3,0-0.5,0.2-0.5,0.5s0.2,0.5,0.5,0.5h8c0.3,0,0.5-0.2,0.5-0.5S30.5,30.5,30.3,30.5z"/>
		<path class="st1" d="M20.4,29.1l-2.2,1.7l-0.7-0.7c-0.2-0.2-0.5-0.2-0.7,0s-0.2,0.5,0,0.7l1,1C18,32,18.1,32,18.3,32
			c0.1,0,0.2,0,0.3-0.1l2.5-2c0.2-0.2,0.3-0.5,0.1-0.7C21,29,20.7,28.9,20.4,29.1z"/>
	</g>
	<g>
	</g>
	<g>
	</g>
	<g>
	</g>
	<g>
	</g>
	<g>
	</g>
	<g>
	</g>
	<g>
	</g>
	<g>
	</g>
	<g>
	</g>
	<g>
	</g>
	<g>
	</g>
	<g>
	</g>
	<g>
	</g>
	<g>
	</g>
	<g>
	</g>
</g>
</svg>
