<?xml version="1.0" encoding="utf-8"?>
<!-- Generator: Adobe Illustrator 25.2.3, SVG Export Plug-In . SVG Version: 6.00 Build 0)  -->
<svg version="1.1" id="Layer_1" xmlns="http://www.w3.org/2000/svg" xmlns:xlink="http://www.w3.org/1999/xlink" x="0px" y="0px"
	 viewBox="0 0 48 48" style="enable-background:new 0 0 48 48;" xml:space="preserve">
<style type="text/css">
	.st0{fill:#99CC00;}
	.st1{fill:#FFFFFF;}
</style>
<circle class="st0" cx="24" cy="24" r="24"/>
<path class="st1" d="M38,24.5H25.3v-2.1h10c0.2,0,0.4-0.1,0.4-0.2l2.6-4.2c0.1-0.2,0.1-0.4,0-0.6l-2.6-4.2c-0.1-0.2-0.3-0.2-0.4-0.2
	h-10v-1.6h0.5c0.3,0,0.5-0.2,0.5-0.5V8.7c0-0.3-0.2-0.5-0.5-0.5h-4.2c-0.3,0-0.5,0.2-0.5,0.5v2.1c0,0.3,0.2,0.5,0.5,0.5h0.5v1.6H10
	c-0.3,0-0.5,0.2-0.5,0.5v8.4c0,0.3,0.2,0.5,0.5,0.5h12.1v2.1h-9.5c-0.2,0-0.4,0.1-0.4,0.2L9.6,29c-0.1,0.2-0.1,0.4,0,0.6l2.6,4.2
	c0.1,0.2,0.3,0.2,0.4,0.2h9.5v5.3c0,0.3,0.2,0.5,0.5,0.5h2.1c0.3,0,0.5-0.2,0.5-0.5V34H38c0.3,0,0.5-0.2,0.5-0.5v-8.4
	C38.5,24.8,38.3,24.5,38,24.5L38,24.5z M22.2,9.2h3.2v1.1h-3.2V9.2z M23.2,11.3h1.1v1.6h-1.1V11.3z M10.6,14H35l2.3,3.7L35,21.4
	H10.6V14z M23.2,22.4h1.1v2.1h-1.1V22.4z M24.3,38.8h-1.1V34h1.1V38.8z M37.4,33H13l-2.3-3.7l2.3-3.7h24.5V33z"/>
</svg>
